<svg width="16" height="16" viewBox="0 0 16 16" fill="none" xmlns="http://www.w3.org/2000/svg">
<path d="M8.83333 15.5H5.5V5.5H8.83333V7.16667C9.54386 6.26271 10.6214 5.72381 11.7708 5.6975C13.838 5.70898 15.506 7.39115 15.5 9.45833V15.5H12.1667V9.875C12.0334 8.94386 11.2348 8.25298 10.2942 8.255C9.88273 8.26801 9.49437 8.44815 9.2187 8.75385C8.94303 9.05956 8.80387 9.46441 8.83333 9.875V15.5ZM3.83333 15.5H0.5V5.5H3.83333V15.5ZM2.16667 3.83333C1.24619 3.83333 0.5 3.08714 0.5 2.16667C0.5 1.24619 1.24619 0.5 2.16667 0.5C3.08714 0.5 3.83333 1.24619 3.83333 2.16667C3.83333 2.60869 3.65774 3.03262 3.34518 3.34518C3.03262 3.65774 2.60869 3.83333 2.16667 3.83333Z" fill="white"/>
</svg>
