<svg width="14" height="16" viewBox="0 0 14 16" fill="none" xmlns="http://www.w3.org/2000/svg">
<path d="M6.83167 15.5075H4.72834C4.62147 15.5135 4.51842 15.4668 4.45251 15.3825C4.3857 15.2969 4.35843 15.1869 4.37751 15.08C4.41084 14.8791 4.45251 14.6141 4.50501 14.2775C4.53417 14.0925 4.56584 13.8916 4.60001 13.6716C4.70417 13.005 4.77501 12.5575 4.82251 12.265C4.8414 12.1478 4.86389 12.0089 4.89001 11.8483V11.8316C4.93278 11.5655 4.98501 11.2422 5.04667 10.8616L5.13001 10.3458V10.3416C5.19001 9.97109 5.23723 9.67637 5.27167 9.45748C5.2755 9.36748 5.31651 9.28311 5.38492 9.2245C5.45332 9.16589 5.54298 9.1383 5.63251 9.14831H6.89917C7.50684 9.15486 8.11342 9.09562 8.70834 8.97164C9.60406 8.7929 10.4349 8.37573 11.1133 7.76414C11.7078 7.19309 12.154 6.48572 12.4133 5.70331C12.5399 5.33983 12.638 4.96704 12.7067 4.58831C12.7125 4.55331 12.7192 4.53331 12.7275 4.52664C12.7325 4.52022 12.7402 4.51651 12.7483 4.51664H12.7567C12.775 4.52432 12.7923 4.53411 12.8083 4.54581C13.2456 4.87702 13.5381 5.3642 13.625 5.90581C13.7236 6.4724 13.7123 7.05267 13.5917 7.61498C13.4338 8.70321 12.8834 9.69614 12.0442 10.4066C11.117 11.0674 9.99367 11.3952 8.85667 11.3366H8.49084C8.35466 11.3355 8.22287 11.3848 8.12084 11.475C8.01505 11.5668 7.94462 11.6926 7.92167 11.8308L7.88751 11.9925L7.42667 14.8908L7.40917 15.0166C7.38536 15.1563 7.31198 15.2826 7.20251 15.3725C7.09945 15.4611 6.9676 15.5091 6.83167 15.5075ZM3.85001 13.8408H1.37917C1.26126 13.8433 1.14844 13.7928 1.07167 13.7033C0.991659 13.6154 0.956345 13.4956 0.97584 13.3783L2.91834 1.05331C2.94277 0.895183 3.02503 0.751751 3.14917 0.650811C3.26908 0.547406 3.42251 0.491132 3.58084 0.492454H8.5925C8.86726 0.503305 9.1404 0.539853 9.40834 0.601645C9.7277 0.662082 10.0409 0.751336 10.3442 0.868311C10.8961 1.06348 11.3747 1.42364 11.715 1.89998C12.0377 2.3862 12.2029 2.95994 12.1883 3.54331C12.1742 4.21986 12.0443 4.88898 11.8042 5.52164C11.4214 6.75052 10.4826 7.7276 9.27001 8.15914C8.58936 8.38961 7.8761 8.50919 7.15751 8.51331C7.14917 8.51831 6.79084 8.51914 6.40751 8.51914L5.65751 8.51331C5.16277 8.46282 4.72041 8.82207 4.66834 9.31664C4.65751 9.36164 4.40417 10.9391 3.95584 13.7575C3.95586 13.7842 3.94389 13.8095 3.92322 13.8265C3.90256 13.8434 3.87538 13.8502 3.84917 13.845L3.85001 13.8408Z" fill="white"/>
</svg>
