<svg width="18" height="18" viewBox="0 0 18 18" fill="none" xmlns="http://www.w3.org/2000/svg">
<path d="M0.668335 9.00162C0.669305 13.1011 3.65034 16.5916 7.69917 17.2341V11.41H5.585V9.00162H7.70167V7.16829C7.60705 6.29957 7.90377 5.43378 8.51137 4.80573C9.11897 4.17768 9.97446 3.85247 10.8458 3.91829C11.4713 3.92839 12.0952 3.98409 12.7125 4.08496V6.13412H11.6592C11.2965 6.08663 10.932 6.20639 10.6681 6.45968C10.4043 6.71297 10.2698 7.07236 10.3025 7.43662V9.00162H12.6117L12.2425 11.4108H10.3025V17.2341C14.6812 16.5421 17.7517 12.5431 17.2896 8.13418C16.8274 3.72526 12.9944 0.449896 8.56736 0.680938C4.1403 0.911979 0.669039 4.56855 0.668335 9.00162Z" fill="white"/>
</svg>
