<svg width="16" height="16" viewBox="0 0 16 16" fill="none" xmlns="http://www.w3.org/2000/svg">
<path d="M8.29665 6.63002V9.50586H12.29C11.9183 11.3334 10.3625 12.3834 8.29665 12.3834C5.89044 12.3502 3.95721 10.3902 3.95721 7.98377C3.95721 5.57733 5.89044 3.61731 8.29665 3.58419C9.29683 3.58299 10.2662 3.93008 11.0383 4.56586L13.205 2.39919C10.7197 0.214247 7.08999 -0.0667803 4.29795 1.70956C1.50591 3.4859 0.222508 6.8927 1.14853 10.0697C2.07455 13.2467 4.98744 15.4304 8.29665 15.4284C12.0192 15.4284 15.4042 12.7209 15.4042 7.98336C15.3984 7.52722 15.3425 7.0731 15.2375 6.62919L8.29665 6.63002Z" fill="white"/>
</svg>
