<svg width="16" height="16" viewBox="0 0 16 16" fill="none" xmlns="http://www.w3.org/2000/svg">
<path d="M8.33496 15.5342C6.28496 15.5342 6.04329 15.5233 5.24329 15.4883C4.61944 15.4678 4.00366 15.341 3.42246 15.1133C2.41689 14.722 1.62174 13.9265 1.23079 12.9208C1.01188 12.3375 0.893809 11.7212 0.881628 11.0983C0.834961 10.3 0.834961 10.0383 0.834961 8.00415C0.834961 5.94832 0.845794 5.70832 0.881628 4.91248C0.894076 4.29042 1.01215 3.67499 1.23079 3.09248C1.62132 2.08543 2.41775 1.28929 3.42496 0.89915C4.00716 0.679319 4.62275 0.560937 5.24496 0.54915C6.04079 0.50415 6.30246 0.50415 8.33496 0.50415C10.4016 0.50415 10.6391 0.514984 11.4266 0.54915C12.0505 0.561039 12.6677 0.679408 13.2516 0.89915C14.2585 1.28974 15.0548 2.08571 15.4458 3.09248C15.6684 3.68348 15.7871 4.30853 15.7966 4.93998C15.8433 5.73832 15.8433 5.99915 15.8433 8.03248C15.8433 10.0658 15.8316 10.3325 15.7966 11.1217C15.7842 11.7452 15.6659 12.362 15.4466 12.9458C15.0547 13.9522 14.2583 14.748 13.2516 15.1392C12.6685 15.3576 12.0526 15.4757 11.43 15.4883C10.6341 15.5342 10.3733 15.5342 8.33496 15.5342ZM8.30663 1.82332C6.26829 1.82332 6.05663 1.83332 5.26079 1.86915C4.78578 1.87544 4.31536 1.9631 3.86996 2.12832C3.21226 2.37999 2.69182 2.89831 2.43746 3.55498C2.27097 4.00523 2.1833 4.4808 2.17829 4.96082C2.13413 5.76832 2.13413 5.97998 2.13413 8.00415C2.13413 10.0042 2.14163 10.2467 2.17829 11.0492C2.18575 11.5243 2.27337 11.9948 2.43746 12.4408C2.69219 13.0971 3.21254 13.615 3.86996 13.8667C4.31506 14.033 4.78567 14.1207 5.26079 14.1258C6.06746 14.1725 6.27996 14.1725 8.30663 14.1725C10.3508 14.1725 10.5625 14.1625 11.3516 14.1258C11.827 14.12 12.2977 14.0324 12.7433 13.8667C13.397 13.6128 13.9141 13.0961 14.1683 12.4425C14.3345 11.9919 14.4221 11.5161 14.4275 11.0358H14.4366C14.4725 10.2392 14.4725 10.0267 14.4725 7.99082C14.4725 5.95498 14.4633 5.74082 14.4275 4.94498C14.42 4.47036 14.3324 4.00041 14.1683 3.55498C13.9146 2.90046 13.3975 2.38273 12.7433 2.12832C12.2978 1.96227 11.827 1.87458 11.3516 1.86915C10.5458 1.82332 10.335 1.82332 8.30663 1.82332ZM8.33496 11.8533C6.77662 11.8543 5.37114 10.9164 4.77401 9.47703C4.17688 8.03763 4.50572 6.38026 5.60715 5.27787C6.70859 4.17548 8.36568 3.84521 9.80559 4.44109C11.2455 5.03698 12.1846 6.44164 12.185 7.99998C12.1827 10.1259 10.4608 11.8492 8.33496 11.8533ZM8.33496 5.49832C6.95425 5.49832 5.83496 6.61761 5.83496 7.99832C5.83496 9.37903 6.95425 10.4983 8.33496 10.4983C9.71567 10.4983 10.835 9.37903 10.835 7.99832C10.8318 6.61894 9.71434 5.50152 8.33496 5.49832ZM12.335 4.90415C11.8395 4.90231 11.439 4.49964 11.44 4.00416C11.4409 3.50867 11.8428 3.10749 12.3383 3.10749C12.8338 3.10749 13.2357 3.50867 13.2366 4.00415C13.2368 4.2432 13.1419 4.4725 12.9727 4.64138C12.8035 4.81026 12.574 4.90482 12.335 4.90415Z" fill="white"/>
</svg>
